<?xml version="1.0" encoding="UTF-8"?>
<!DOCTYPE svg PUBLIC "-//W3C//DTD SVG 1.1//EN" "http://www.w3.org/Graphics/SVG/1.1/DTD/svg11.dtd">
<svg xmlns="http://www.w3.org/2000/svg" version="1.1" width="2043px" height="2052px" style="shape-rendering:geometricPrecision; text-rendering:geometricPrecision; image-rendering:optimizeQuality; fill-rule:evenodd; clip-rule:evenodd" xmlns:xlink="http://www.w3.org/1999/xlink">
<g><path style="opacity:1" fill="#fefefe" d="M -0.5,-0.5 C 680.5,-0.5 1361.5,-0.5 2042.5,-0.5C 2042.5,683.5 2042.5,1367.5 2042.5,2051.5C 1361.5,2051.5 680.5,2051.5 -0.5,2051.5C -0.5,1367.5 -0.5,683.5 -0.5,-0.5 Z"/></g>
<g><path style="opacity:1" fill="#c94d57" d="M 1492.5,726.5 C 1490.42,728.873 1487.75,730.206 1484.5,730.5C 1486.03,729.075 1485.7,728.409 1483.5,728.5C 1486.22,727.087 1489.22,726.42 1492.5,726.5 Z"/></g>
<g><path style="opacity:1" fill="#ec5f5d" d="M 1468.5,730.5 C 1461.33,733.799 1453.66,735.466 1445.5,735.5C 1445.92,734.778 1446.58,734.278 1447.5,734C 1454.53,732.931 1461.53,731.765 1468.5,730.5 Z"/></g>
<g><path style="opacity:1" fill="#ec4f4f" d="M 1441.5,735.5 C 1440.91,736.151 1440.24,736.818 1439.5,737.5C 1431.84,738.724 1424.17,739.724 1416.5,740.5C 1424.58,738.218 1432.91,736.551 1441.5,735.5 Z"/></g>
<g><path style="opacity:1" fill="#f5868c" d="M 1375.5,747.5 C 1375.08,748.222 1374.42,748.722 1373.5,749C 1370.85,749.497 1368.19,749.664 1365.5,749.5C 1368.63,748.419 1371.96,747.753 1375.5,747.5 Z"/></g>
<g><path style="opacity:1" fill="#fd1d25" d="M 1483.5,728.5 C 1485.7,728.409 1486.03,729.075 1484.5,730.5C 1447.93,748.467 1411.27,766.133 1374.5,783.5C 1372.03,783.755 1370.03,784.755 1368.5,786.5C 1325.9,805.963 1283.57,826.296 1241.5,847.5C 1239.03,847.755 1237.03,848.755 1235.5,850.5C 1210.92,861.722 1186.59,873.389 1162.5,885.5C 1160.03,885.755 1158.03,886.755 1156.5,888.5C 1111.01,909.574 1065.68,931.241 1020.5,953.5C 987.353,945.297 954.353,936.63 921.5,927.5C 918.495,925.723 915.162,924.723 911.5,924.5C 897.116,921.039 882.782,917.372 868.5,913.5C 867.365,911.787 865.698,911.12 863.5,911.5C 845.452,907.574 827.785,902.907 810.5,897.5C 808.485,896.076 806.152,895.41 803.5,895.5C 803.196,894.85 802.863,894.183 802.5,893.5C 799.893,892.682 797.226,892.182 794.5,892C 795.167,891.333 795.833,890.667 796.5,890C 794.273,889.879 792.44,889.046 791,887.5C 789.562,888.718 787.895,889.385 786,889.5C 781.849,888.669 777.683,888.003 773.5,887.5C 765.513,885.503 757.513,883.503 749.5,881.5C 747.898,879.926 745.898,879.259 743.5,879.5C 734.141,878.151 725.141,875.818 716.5,872.5C 716.389,871.883 716.056,871.383 715.5,871C 717.833,870.667 720.167,870.333 722.5,870C 723.056,869.617 723.389,869.117 723.5,868.5C 728.288,867.047 733.288,866.047 738.5,865.5C 741.829,865.785 744.829,865.118 747.5,863.5C 748.833,863.5 750.167,863.5 751.5,863.5C 755.697,863.571 759.863,863.237 764,862.5C 765.681,862.392 766.848,861.725 767.5,860.5C 780.564,857.322 793.898,854.988 807.5,853.5C 814.822,851.983 821.655,852.317 828,854.5C 829.167,854.167 830.333,853.833 831.5,853.5C 829.577,852.692 827.577,852.192 825.5,852C 828.377,850.873 831.377,850.206 834.5,850C 835.381,849.292 836.047,848.458 836.5,847.5C 836.833,847.5 837.167,847.5 837.5,847.5C 846.575,847.271 855.242,845.604 863.5,842.5C 882.356,840.524 901.023,837.357 919.5,833C 920.056,832.617 920.389,832.117 920.5,831.5C 923.518,831.665 926.518,831.498 929.5,831C 949.173,826.945 968.839,823.111 988.5,819.5C 996.158,819.014 1003.83,818.68 1011.5,818.5C 1011.5,817.5 1011.5,816.5 1011.5,815.5C 1016.54,815.412 1021.54,814.912 1026.5,814C 1027.06,813.617 1027.39,813.117 1027.5,812.5C 1042.03,809.203 1056.69,806.537 1071.5,804.5C 1079.15,803.445 1086.82,802.445 1094.5,801.5C 1094.86,800.817 1095.2,800.15 1095.5,799.5C 1102.75,798.957 1109.75,797.623 1116.5,795.5C 1122.81,794.285 1129.14,793.285 1135.5,792.5C 1146.55,791.879 1157.22,789.879 1167.5,786.5C 1173.18,786.739 1178.52,785.739 1183.5,783.5C 1186.23,783.829 1188.56,783.163 1190.5,781.5C 1199.81,780.003 1209.14,778.67 1218.5,777.5C 1222.16,777.048 1225.83,776.548 1229.5,776C 1230.42,775.722 1231.08,775.222 1231.5,774.5C 1232.17,774.5 1232.83,774.5 1233.5,774.5C 1244.45,772.811 1255.45,771.311 1266.5,770C 1267.25,769.329 1267.59,768.496 1267.5,767.5C 1273.64,767.272 1279.64,766.272 1285.5,764.5C 1289.08,764.451 1292.41,763.785 1295.5,762.5C 1305.96,760.29 1316.63,758.623 1327.5,757.5C 1335.9,756.433 1344.23,754.933 1352.5,753C 1353.06,752.617 1353.39,752.117 1353.5,751.5C 1357.63,751.428 1361.63,750.761 1365.5,749.5C 1368.19,749.664 1370.85,749.497 1373.5,749C 1374.42,748.722 1375.08,748.222 1375.5,747.5C 1389.14,745.038 1402.81,742.705 1416.5,740.5C 1424.17,739.724 1431.84,738.724 1439.5,737.5C 1440.24,736.818 1440.91,736.151 1441.5,735.5C 1442.83,735.5 1444.17,735.5 1445.5,735.5C 1453.66,735.466 1461.33,733.799 1468.5,730.5C 1473.31,729.407 1478.31,728.741 1483.5,728.5 Z"/></g>
<g><path style="opacity:1" fill="#e7595c" d="M 1353.5,751.5 C 1353.39,752.117 1353.06,752.617 1352.5,753C 1344.23,754.933 1335.9,756.433 1327.5,757.5C 1335.83,754.631 1344.49,752.631 1353.5,751.5 Z"/></g>
<g><path style="opacity:1" fill="#fd9da1" d="M 1295.5,762.5 C 1292.41,763.785 1289.08,764.451 1285.5,764.5C 1288.51,762.825 1291.84,762.159 1295.5,762.5 Z"/></g>
<g><path style="opacity:1" fill="#0771bc" d="M 1492.5,726.5 C 1493.49,726.328 1494.16,726.662 1494.5,727.5C 1487.11,734.388 1480.61,742.055 1475,750.5C 1473.99,751.337 1472.82,751.67 1471.5,751.5C 1471.76,752.978 1471.43,754.311 1470.5,755.5C 1397.98,841.669 1326.31,928.336 1255.5,1015.5C 1254.17,1015.5 1252.83,1015.5 1251.5,1015.5C 1186.96,998.36 1122.29,980.86 1057.5,963C 1045.16,960.333 1032.83,957.5 1020.5,954.5C 1020.5,954.167 1020.5,953.833 1020.5,953.5C 1065.68,931.241 1111.01,909.574 1156.5,888.5C 1158.97,888.245 1160.97,887.245 1162.5,885.5C 1186.59,873.389 1210.92,861.722 1235.5,850.5C 1237.97,850.245 1239.97,849.245 1241.5,847.5C 1283.57,826.296 1325.9,805.963 1368.5,786.5C 1370.97,786.245 1372.97,785.245 1374.5,783.5C 1411.27,766.133 1447.93,748.467 1484.5,730.5C 1487.75,730.206 1490.42,728.873 1492.5,726.5 Z"/></g>
<g><path style="opacity:1" fill="#ed5254" d="M 1267.5,767.5 C 1267.59,768.496 1267.25,769.329 1266.5,770C 1255.45,771.311 1244.45,772.811 1233.5,774.5C 1244.57,771.539 1255.9,769.206 1267.5,767.5 Z"/></g>
<g><path style="opacity:1" fill="#e75957" d="M 1231.5,774.5 C 1231.08,775.222 1230.42,775.722 1229.5,776C 1225.83,776.548 1222.16,777.048 1218.5,777.5C 1222.54,775.763 1226.88,774.763 1231.5,774.5 Z"/></g>
<g><path style="opacity:1" fill="#dd9592" d="M 1190.5,781.5 C 1188.56,783.163 1186.23,783.829 1183.5,783.5C 1185.51,782.076 1187.85,781.41 1190.5,781.5 Z"/></g>
<g><path style="opacity:1" fill="#2aa9e0" d="M 1494.5,727.5 C 1455.27,823.479 1415.6,919.479 1375.5,1015.5C 1335.5,1015.5 1295.5,1015.5 1255.5,1015.5C 1326.31,928.336 1397.98,841.669 1470.5,755.5C 1471.43,754.311 1471.76,752.978 1471.5,751.5C 1472.82,751.67 1473.99,751.337 1475,750.5C 1480.61,742.055 1487.11,734.388 1494.5,727.5 Z"/></g>
<g><path style="opacity:1" fill="#ee5c61" d="M 1183.5,783.5 C 1178.52,785.739 1173.18,786.739 1167.5,786.5C 1172.57,784.77 1177.9,783.77 1183.5,783.5 Z"/></g>
<g><path style="opacity:1" fill="#98506f" d="M 1374.5,783.5 C 1372.97,785.245 1370.97,786.245 1368.5,786.5C 1370.03,784.755 1372.03,783.755 1374.5,783.5 Z"/></g>
<g><path style="opacity:1" fill="#e94f4b" d="M 1167.5,786.5 C 1157.22,789.879 1146.55,791.879 1135.5,792.5C 1145.93,789.882 1156.6,787.882 1167.5,786.5 Z"/></g>
<g><path style="opacity:1" fill="#ea989e" d="M 1116.5,795.5 C 1109.75,797.623 1102.75,798.957 1095.5,799.5C 1102.24,797.42 1109.24,796.087 1116.5,795.5 Z"/></g>
<g><path style="opacity:1" fill="#eb5d5b" d="M 1095.5,799.5 C 1095.2,800.15 1094.86,800.817 1094.5,801.5C 1086.82,802.445 1079.15,803.445 1071.5,804.5C 1079.22,802.089 1087.22,800.422 1095.5,799.5 Z"/></g>
<g><path style="opacity:1" fill="#ee4945" d="M 1027.5,812.5 C 1027.39,813.117 1027.06,813.617 1026.5,814C 1021.54,814.912 1016.54,815.412 1011.5,815.5C 1011.5,816.5 1011.5,817.5 1011.5,818.5C 1003.83,818.68 996.158,819.014 988.5,819.5C 1001.24,816.342 1014.24,814.009 1027.5,812.5 Z"/></g>
<g><path style="opacity:1" fill="#ec595a" d="M 920.5,831.5 C 920.389,832.117 920.056,832.617 919.5,833C 901.023,837.357 882.356,840.524 863.5,842.5C 882.359,838.743 901.359,835.076 920.5,831.5 Z"/></g>
<g><path style="opacity:1" fill="#f17a79" d="M 863.5,842.5 C 855.242,845.604 846.575,847.271 837.5,847.5C 845.867,844.918 854.534,843.251 863.5,842.5 Z"/></g>
<g><path style="opacity:1" fill="#994f6e" d="M 1241.5,847.5 C 1239.97,849.245 1237.97,850.245 1235.5,850.5C 1237.03,848.755 1239.03,847.755 1241.5,847.5 Z"/></g>
<g><path style="opacity:1" fill="#f33c3c" d="M 836.5,847.5 C 836.047,848.458 835.381,849.292 834.5,850C 831.377,850.206 828.377,850.873 825.5,852C 827.577,852.192 829.577,852.692 831.5,853.5C 830.333,853.833 829.167,854.167 828,854.5C 821.655,852.317 814.822,851.983 807.5,853.5C 816.885,850.742 826.552,848.742 836.5,847.5 Z"/></g>
<g><path style="opacity:1" fill="#eb5f5c" d="M 767.5,860.5 C 766.848,861.725 765.681,862.392 764,862.5C 759.863,863.237 755.697,863.571 751.5,863.5C 756.473,861.24 761.806,860.24 767.5,860.5 Z"/></g>
<g><path style="opacity:1" fill="#ef989b" d="M 747.5,863.5 C 744.829,865.118 741.829,865.785 738.5,865.5C 741.273,864.343 744.273,863.676 747.5,863.5 Z"/></g>
<g><path style="opacity:1" fill="#e15857" d="M 723.5,868.5 C 723.389,869.117 723.056,869.617 722.5,870C 720.167,870.333 717.833,870.667 715.5,871C 716.056,871.383 716.389,871.883 716.5,872.5C 714.571,872.769 712.905,872.269 711.5,871C 715.377,869.631 719.377,868.798 723.5,868.5 Z"/></g>
<g><path style="opacity:1" fill="#f27578" d="M 743.5,879.5 C 745.898,879.259 747.898,879.926 749.5,881.5C 747.102,881.741 745.102,881.074 743.5,879.5 Z"/></g>
<g><path style="opacity:1" fill="#985368" d="M 1162.5,885.5 C 1160.97,887.245 1158.97,888.245 1156.5,888.5C 1158.03,886.755 1160.03,885.755 1162.5,885.5 Z"/></g>
<g><path style="opacity:1" fill="#f33e3c" d="M 773.5,887.5 C 777.683,888.003 781.849,888.669 786,889.5C 787.895,889.385 789.562,888.718 791,887.5C 792.44,889.046 794.273,889.879 796.5,890C 795.833,890.667 795.167,891.333 794.5,892C 797.226,892.182 799.893,892.682 802.5,893.5C 802.863,894.183 803.196,894.85 803.5,895.5C 793.166,893.751 783.166,891.085 773.5,887.5 Z"/></g>
<g><path style="opacity:1" fill="#e86b71" d="M 803.5,895.5 C 806.152,895.41 808.485,896.076 810.5,897.5C 807.772,897.829 805.438,897.163 803.5,895.5 Z"/></g>
<g><path style="opacity:1" fill="#f48984" d="M 863.5,911.5 C 865.698,911.12 867.365,911.787 868.5,913.5C 866.302,913.88 864.635,913.213 863.5,911.5 Z"/></g>
<g><path style="opacity:1" fill="#ef767b" d="M 911.5,924.5 C 915.162,924.723 918.495,925.723 921.5,927.5C 917.838,927.277 914.505,926.277 911.5,924.5 Z"/></g>
<g><path style="opacity:1" fill="#2aaae0" d="M 1020.5,954.5 C 1032.83,957.5 1045.16,960.333 1057.5,963C 1122.29,980.86 1186.96,998.36 1251.5,1015.5C 1132.67,1015.83 1014,1015.5 895.5,1014.5C 896.167,1013.83 896.833,1013.17 897.5,1012.5C 938.333,992.918 979.333,973.585 1020.5,954.5 Z"/></g>
<g><path style="opacity:1" fill="#85c7e0" d="M 895.5,1014.5 C 1014,1015.5 1132.67,1015.83 1251.5,1015.5C 1252.83,1015.5 1254.17,1015.5 1255.5,1015.5C 1295.5,1015.5 1335.5,1015.5 1375.5,1015.5C 1375.5,1016.17 1375.17,1016.5 1374.5,1016.5C 1213.83,1016.67 1053.17,1016.5 892.5,1016C 893.244,1014.96 894.244,1014.46 895.5,1014.5 Z"/></g>
<g><path style="opacity:1" fill="#eafbfe" d="M 897.5,1012.5 C 896.833,1013.17 896.167,1013.83 895.5,1014.5C 894.244,1014.46 893.244,1014.96 892.5,1016C 1053.17,1016.5 1213.83,1016.67 1374.5,1016.5C 1215,1017.17 1055.33,1017.83 895.5,1018.5C 896.833,1019.17 898.167,1019.83 899.5,1020.5C 894.941,1021.47 891.941,1019.64 890.5,1015C 891.869,1011.49 894.202,1010.65 897.5,1012.5 Z"/></g>
<g><path style="opacity:1" fill="#040404" d="M 636.5,1167.5 C 633.024,1166.36 629.358,1166.19 625.5,1167C 622.719,1167.52 620.385,1168.69 618.5,1170.5C 610.553,1176.06 606.553,1183.73 606.5,1193.5C 605.339,1208.99 605.172,1224.66 606,1240.5C 606.198,1242.38 606.698,1244.05 607.5,1245.5C 612.768,1265.47 625.101,1271.63 644.5,1264C 649.886,1260.39 653.719,1255.56 656,1249.5C 656.561,1248.98 657.228,1248.64 658,1248.5C 667.21,1251.94 676.21,1255.94 685,1260.5C 677.16,1281.23 661.993,1293.06 639.5,1296C 598.929,1298.76 576.762,1279.93 573,1239.5C 572.172,1222.66 572.338,1205.99 573.5,1189.5C 574.491,1184.95 575.491,1180.28 576.5,1175.5C 583.487,1154.66 597.82,1142.16 619.5,1138C 645.371,1134.03 665.871,1142.53 681,1163.5C 683.437,1166.94 684.27,1170.6 683.5,1174.5C 675.249,1178.46 666.915,1182.13 658.5,1185.5C 655.417,1181.24 652.084,1177.07 648.5,1173C 644.801,1170.49 640.801,1168.66 636.5,1167.5 Z"/></g>
<g><path style="opacity:1" fill="#6d6d6d" d="M 636.5,1167.5 C 630.237,1167.06 624.237,1168.06 618.5,1170.5C 620.385,1168.69 622.719,1167.52 625.5,1167C 629.358,1166.19 633.024,1166.36 636.5,1167.5 Z"/></g>
<g><path style="opacity:1" fill="#6d6d6d" d="M 576.5,1175.5 C 575.491,1180.28 574.491,1184.95 573.5,1189.5C 573.044,1184.4 574.044,1179.74 576.5,1175.5 Z"/></g>
<g><path style="opacity:1" fill="#a3a3a3" d="M 967.5,1182.5 C 962.105,1182.27 956.772,1182.6 951.5,1183.5C 951.611,1182.88 951.944,1182.38 952.5,1182C 957.684,1181.18 962.684,1181.35 967.5,1182.5 Z"/></g>
<g><path style="opacity:1" fill="#b7b7b7" d="M 1529.5,1182.5 C 1535.99,1181.35 1542.65,1181.18 1549.5,1182C 1552.1,1182.39 1554.44,1183.22 1556.5,1184.5C 1547.57,1182.96 1538.57,1182.3 1529.5,1182.5 Z"/></g>
<g><path style="opacity:1" fill="#030303" d="M 745.5,1182.5 C 760.623,1180.69 774.957,1183.19 788.5,1190C 797.969,1196.1 804.135,1204.6 807,1215.5C 811.659,1235.76 809.992,1255.43 802,1274.5C 793.859,1286.83 782.359,1294 767.5,1296C 746.418,1299.36 729.251,1292.86 716,1276.5C 712.683,1270.88 710.35,1264.88 709,1258.5C 707.468,1246.54 707.135,1234.54 708,1222.5C 711.871,1200.8 724.371,1187.47 745.5,1182.5 Z"/></g>
<g><path style="opacity:1" fill="#040404" d="M 951.5,1183.5 C 956.772,1182.6 962.105,1182.27 967.5,1182.5C 986.603,1183.77 998.103,1193.77 1002,1212.5C 1002.83,1239.74 1002.66,1266.91 1001.5,1294C 991.589,1294.82 981.756,1294.65 972,1293.5C 971.667,1270.17 971.333,1246.83 971,1223.5C 967.706,1211.43 959.872,1206.93 947.5,1210C 941.73,1212.69 938.23,1217.19 937,1223.5C 936.667,1246.83 936.333,1270.17 936,1293.5C 926.244,1294.65 916.411,1294.82 906.5,1294C 905.672,1270.57 905.172,1247.07 905,1223.5C 903.129,1214.3 897.463,1209.3 888,1208.5C 880.408,1209.42 875.074,1213.42 872,1220.5C 871.667,1244.83 871.333,1269.17 871,1293.5C 860.735,1294.83 850.569,1294.83 840.5,1293.5C 840.5,1257.5 840.5,1221.5 840.5,1185.5C 850.5,1185.5 860.5,1185.5 870.5,1185.5C 870.187,1188.25 870.52,1190.91 871.5,1193.5C 881.785,1183.34 894.118,1179.84 908.5,1183C 917.13,1184.64 924.13,1188.81 929.5,1195.5C 935.436,1188.87 942.769,1184.87 951.5,1183.5 Z"/></g>
<g><path style="opacity:1" fill="#040404" d="M 1087.5,1182.5 C 1097.9,1181.53 1107.9,1183.03 1117.5,1187C 1120.98,1189.31 1123.98,1192.15 1126.5,1195.5C 1140.55,1182.74 1156.89,1178.91 1175.5,1184C 1189.67,1188.82 1197.83,1198.66 1200,1213.5C 1200.83,1240.41 1200.66,1267.24 1199.5,1294C 1189.26,1294.82 1179.09,1294.65 1169,1293.5C 1168.67,1269.17 1168.33,1244.83 1168,1220.5C 1162.37,1209.62 1153.87,1206.46 1142.5,1211C 1138.62,1213.93 1136.12,1217.76 1135,1222.5C 1134.83,1246.41 1134.33,1270.24 1133.5,1294C 1123.48,1294.83 1113.48,1294.67 1103.5,1293.5C 1102.68,1269.21 1102.18,1244.88 1102,1220.5C 1097.77,1210.47 1090.27,1206.97 1079.5,1210C 1073.73,1212.69 1070.23,1217.19 1069,1223.5C 1068.67,1246.83 1068.33,1270.17 1068,1293.5C 1058.24,1294.65 1048.41,1294.82 1038.5,1294C 1037.5,1257.57 1037.17,1221.07 1037.5,1184.5C 1047.83,1184.5 1058.17,1184.5 1068.5,1184.5C 1068.33,1187.85 1068.5,1191.18 1069,1194.5C 1073.65,1188.1 1079.82,1184.1 1087.5,1182.5 Z"/></g>
<g><path style="opacity:1" fill="#030303" d="M 1268.5,1182.5 C 1284.11,1180.57 1298.78,1183.4 1312.5,1191C 1322.9,1199.29 1329.07,1210.12 1331,1223.5C 1333.64,1242.04 1330.97,1259.7 1323,1276.5C 1315.71,1286.57 1305.88,1292.74 1293.5,1295C 1269.91,1300.58 1251.07,1293.75 1237,1274.5C 1229.35,1256.86 1227.35,1238.53 1231,1219.5C 1235.5,1198.83 1248,1186.5 1268.5,1182.5 Z"/></g>
<g><path style="opacity:1" fill="#050505" d="M 1411.5,1182.5 C 1424.66,1180.83 1436.66,1183.66 1447.5,1191C 1454.01,1197.84 1457.84,1206.01 1459,1215.5C 1459.67,1241.17 1459.67,1266.83 1459,1292.5C 1458.5,1293 1458,1293.5 1457.5,1294C 1447.59,1294.82 1437.76,1294.65 1428,1293.5C 1427.67,1269.83 1427.33,1246.17 1427,1222.5C 1422.36,1210.09 1413.86,1206.26 1401.5,1211C 1397.81,1213.69 1395.31,1217.19 1394,1221.5C 1393.82,1245.54 1393.32,1269.54 1392.5,1293.5C 1382.52,1294.67 1372.52,1294.83 1362.5,1294C 1361.34,1257.9 1361.17,1221.74 1362,1185.5C 1372.09,1184.35 1382.26,1184.18 1392.5,1185C 1393.28,1187.74 1393.78,1190.57 1394,1193.5C 1398.74,1187.89 1404.58,1184.22 1411.5,1182.5 Z"/></g>
<g><path style="opacity:1" fill="#040404" d="M 1529.5,1182.5 C 1538.57,1182.3 1547.57,1182.96 1556.5,1184.5C 1563.84,1186.26 1570.84,1189.1 1577.5,1193C 1579.12,1194.3 1580.46,1195.8 1581.5,1197.5C 1577.43,1203.74 1572.77,1209.58 1567.5,1215C 1566.5,1215.67 1565.5,1215.67 1564.5,1215C 1552.45,1207.26 1539.45,1204.92 1525.5,1208C 1519.58,1214.4 1520.58,1219.4 1528.5,1223C 1537.8,1224.5 1547.13,1225.83 1556.5,1227C 1571.5,1228.96 1580.83,1237.13 1584.5,1251.5C 1584.65,1257.87 1584.32,1264.2 1583.5,1270.5C 1577.23,1284.16 1566.57,1292.33 1551.5,1295C 1529.52,1299.11 1509.18,1295.11 1490.5,1283C 1488.81,1281.31 1487.14,1279.64 1485.5,1278C 1490.73,1272.2 1495.73,1266.2 1500.5,1260C 1501.83,1259.33 1503.17,1259.33 1504.5,1260C 1518.79,1271.06 1534.45,1273.73 1551.5,1268C 1555.8,1263.01 1555.47,1258.51 1550.5,1254.5C 1546.61,1252.12 1542.27,1251.12 1537.5,1251.5C 1536.83,1251.5 1536.17,1251.5 1535.5,1251.5C 1530.4,1250.04 1525.07,1249.38 1519.5,1249.5C 1498.72,1244.3 1489.55,1230.97 1492,1209.5C 1497.94,1191.6 1510.44,1182.6 1529.5,1182.5 Z"/></g>
<g><path style="opacity:1" fill="#232323" d="M 870.5,1185.5 C 860.5,1185.5 850.5,1185.5 840.5,1185.5C 840.5,1221.5 840.5,1257.5 840.5,1293.5C 839.502,1257.34 839.168,1221 839.5,1184.5C 850.014,1184.17 860.347,1184.51 870.5,1185.5 Z"/></g>
<g><path style="opacity:1" fill="#f9f9f9" d="M 753.5,1208.5 C 766.413,1207.2 774.246,1212.87 777,1225.5C 778.115,1236.63 777.449,1247.63 775,1258.5C 770.277,1268.34 762.444,1271.84 751.5,1269C 744.602,1265.72 740.768,1260.22 740,1252.5C 739.125,1241.78 739.459,1231.12 741,1220.5C 743.769,1214.89 747.936,1210.89 753.5,1208.5 Z"/></g>
<g><path style="opacity:1" fill="#fafafa" d="M 1275.5,1208.5 C 1288.45,1207.22 1296.29,1212.88 1299,1225.5C 1299.84,1235.88 1299.5,1246.21 1298,1256.5C 1293.82,1267.96 1285.65,1272.13 1273.5,1269C 1266.06,1265.2 1262.23,1259.03 1262,1250.5C 1261.11,1240.77 1261.44,1231.11 1263,1221.5C 1265.35,1215.32 1269.52,1210.98 1275.5,1208.5 Z"/></g>
<g><path style="opacity:1" fill="#626262" d="M 606.5,1193.5 C 606.254,1210.85 606.587,1228.19 607.5,1245.5C 606.698,1244.05 606.198,1242.38 606,1240.5C 605.172,1224.66 605.339,1208.99 606.5,1193.5 Z"/></g>
<g><path style="opacity:1" fill="#5c5c5c" d="M 1519.5,1249.5 C 1525.07,1249.38 1530.4,1250.04 1535.5,1251.5C 1529.95,1251.47 1524.62,1250.81 1519.5,1249.5 Z"/></g>
<g><path style="opacity:1" fill="#7b7b7b" d="M 1537.5,1251.5 C 1542.27,1251.12 1546.61,1252.12 1550.5,1254.5C 1546.02,1253.63 1541.68,1252.63 1537.5,1251.5 Z"/></g>
<g><path style="opacity:1" fill="#999999" d="M 1584.5,1251.5 C 1585.16,1253.98 1585.5,1256.64 1585.5,1259.5C 1585.71,1263.47 1585.04,1267.14 1583.5,1270.5C 1584.32,1264.2 1584.65,1257.87 1584.5,1251.5 Z"/></g>
<g><path style="opacity:1" fill="#0e0e0e" d="M 1034.5,1426.5 C 1028.69,1425.51 1022.69,1425.18 1016.5,1425.5C 1016.5,1426.5 1016.5,1427.5 1016.5,1428.5C 1015.08,1430.51 1014.41,1432.85 1014.5,1435.5C 1010.83,1435.5 1007.17,1435.5 1003.5,1435.5C 1008.7,1419.06 1014.2,1402.73 1020,1386.5C 1023.79,1385.21 1027.62,1385.21 1031.5,1386.5C 1038.16,1402.49 1043.83,1418.83 1048.5,1435.5C 1044.83,1435.5 1041.17,1435.5 1037.5,1435.5C 1037.07,1432.22 1036.07,1429.22 1034.5,1426.5 Z"/></g>
<g><path style="opacity:1" fill="#030303" d="M 1069.5,1385.5 C 1072.83,1385.5 1076.17,1385.5 1079.5,1385.5C 1079.5,1402.17 1079.5,1418.83 1079.5,1435.5C 1076.17,1435.5 1072.83,1435.5 1069.5,1435.5C 1069.5,1418.83 1069.5,1402.17 1069.5,1385.5 Z"/></g>
<g><path style="opacity:1" fill="#0b0b0b" d="M 1150.5,1434.5 C 1147.5,1434.5 1144.5,1434.5 1141.5,1434.5C 1141.67,1425.49 1141.5,1416.49 1141,1407.5C 1140.28,1408.04 1139.78,1408.71 1139.5,1409.5C 1136.88,1415.41 1134.22,1421.41 1131.5,1427.5C 1128.97,1428.78 1126.47,1428.78 1124,1427.5C 1121.15,1421.14 1118.32,1414.81 1115.5,1408.5C 1115.63,1407.62 1115.3,1406.96 1114.5,1406.5C 1113.5,1415.81 1113.17,1425.14 1113.5,1434.5C 1110.5,1434.5 1107.5,1434.5 1104.5,1434.5C 1104.5,1418.17 1104.5,1401.83 1104.5,1385.5C 1108.23,1385.18 1111.89,1385.51 1115.5,1386.5C 1119.41,1395.32 1123.58,1403.99 1128,1412.5C 1132.53,1404.1 1136.53,1395.44 1140,1386.5C 1143.73,1385.54 1147.56,1385.21 1151.5,1385.5C 1151.83,1402.01 1151.5,1418.34 1150.5,1434.5 Z"/></g>
<g><path style="opacity:1" fill="#e1e1e1" d="M 1025.5,1399.5 C 1028.66,1404.63 1030.66,1410.29 1031.5,1416.5C 1027.83,1416.5 1024.17,1416.5 1020.5,1416.5C 1021.97,1410.76 1023.63,1405.1 1025.5,1399.5 Z"/></g>
<g><path style="opacity:1" fill="#959595" d="M 1150.5,1434.5 C 1147.38,1435.48 1144.04,1435.81 1140.5,1435.5C 1140.83,1426.65 1140.49,1417.98 1139.5,1409.5C 1139.78,1408.71 1140.28,1408.04 1141,1407.5C 1141.5,1416.49 1141.67,1425.49 1141.5,1434.5C 1144.5,1434.5 1147.5,1434.5 1150.5,1434.5 Z"/></g>
<g><path style="opacity:1" fill="#a4a4a4" d="M 1034.5,1426.5 C 1028.21,1425.95 1022.21,1426.61 1016.5,1428.5C 1016.5,1427.5 1016.5,1426.5 1016.5,1425.5C 1022.69,1425.18 1028.69,1425.51 1034.5,1426.5 Z"/></g>
<g><path style="opacity:1" fill="#5c5c5c" d="M 1115.5,1408.5 C 1114.51,1417.32 1114.17,1426.32 1114.5,1435.5C 1110.96,1435.81 1107.62,1435.48 1104.5,1434.5C 1107.5,1434.5 1110.5,1434.5 1113.5,1434.5C 1113.17,1425.14 1113.5,1415.81 1114.5,1406.5C 1115.3,1406.96 1115.63,1407.62 1115.5,1408.5 Z"/></g>
</svg>
